<svg xmlns="http://www.w3.org/2000/svg" width="22" height="22" viewBox="0 0 22 22">
    <g fill="none" fill-rule="evenodd">
        <path d="M1.538 1.538H38.461V38.461H1.538z" transform="translate(-9 -8.5)"/>
        <path fill="#18191F" fill-rule="nonzero" d="M29.948 26.693l-7.008-7.008 6.693-6.693c.394-.394.604-.92.63-1.47 0-.578-.236-1.076-.63-1.47-.394-.394-.918-.604-1.47-.63-.577 0-1.076.236-1.47.63L20 16.745l-6.693-6.693c-.394-.394-.92-.604-1.47-.63-.578 0-1.076.236-1.47.63-.761.761-.761 2.178 0 2.94l6.693 6.693-7.008 7.008c-.394.394-.604.92-.63 1.47 0 .578.236 1.076.63 1.47.394.394.918.604 1.47.63.577 0 1.076-.236 1.47-.63L20 22.625l7.008 7.008c.394.394.92.604 1.47.63.578 0 1.076-.236 1.47-.63.394-.394.604-.918.63-1.47-.026-.55-.236-1.076-.63-1.47z" transform="translate(-9 -8.5)"/>
    </g>
</svg>
